<svg viewBox="0 0 250 70" preserveAspectRatio="xMidYMid meet" class="css-1af7stb"
     id="bedechag"
     xmlns="http://www.w3.org/2000/svg"
>
    <defs id="SvgjsDefs1001">
        <linearGradient id="SvgjsLinearGradient1013">
            <stop id="SvgjsStop1014" stop-color="#905e26" offset="0"></stop>
            <stop id="SvgjsStop1015" stop-color="#f5ec9b" offset="0.5"></stop>
            <stop id="SvgjsStop1016" stop-color="#905e26" offset="1"></stop>
        </linearGradient>
        <linearGradient id="SvgjsLinearGradient1017">
            <stop id="SvgjsStop1018" stop-color="#905e26" offset="0"></stop>
            <stop id="SvgjsStop1019" stop-color="#f5ec9b" offset="0.5"></stop>
            <stop id="SvgjsStop1020" stop-color="#905e26" offset="1"></stop>
        </linearGradient>
        <linearGradient id="SvgjsLinearGradient1021">
            <stop id="SvgjsStop1022" stop-color="#905e26" offset="0"></stop>
            <stop id="SvgjsStop1023" stop-color="#f5ec9b" offset="0.5"></stop>
            <stop id="SvgjsStop1024" stop-color="#905e26" offset="1"></stop>
        </linearGradient>
    </defs>
    <g id="SvgjsG1009"
       transform="matrix(1.76341672322645,0,0,1.76341672322645,0,-20)"
       fill="url(#SvgjsLinearGradient1021)">
        <path
                d="M47.88 51.44 c-0.48 0 -0.88 -0.32 -0.96 -0.84 c-0.12 -0.44 -0.08 -0.96 0.08 -1.48 c0.24 -0.8 0.48 -1.48 0.72 -2.08 c1.04 -2.68 2.28 -5.36 3.36 -7.68 c1.8 -3.8 3.52 -7.28 5.28 -10.64 c0.48 -0.92 1 -1.84 1.52 -2.76 c0.28 -0.44 0.52 -0.88 0.8 -1.36 l0.48 -0.88 c0.08 -0.2 0 -0.48 -0.16 -0.6 c-0.12 -0.12 -0.28 -0.12 -0.36 -0.12 s-0.12 0 -0.2 0.04 c-0.16 0.08 -0.32 0.16 -0.44 0.28 l-0.44 0.36 c-0.12 0.08 -0.24 0.2 -0.32 0.28 c-1.96 1.64 -3.92 3.24 -5.84 4.88 l-15.88 13.24 c-2.36 1.96 -4.88 3.8 -7.52 5.44 c-1.88 1.2 -3.48 2.08 -5.08 2.72 c-0.88 0.4 -1.96 0.76 -3.12 0.8 l-0.2 0 c-0.4 0 -0.68 0 -0.96 -0.04 c-0.84 -0.16 -1.48 -0.64 -1.8 -1.48 c-0.2 -0.6 -0.24 -1.2 -0.12 -1.8 c0.16 -1.08 0.52 -2.16 1.08 -3.44 c0.8 -1.76 1.68 -3.4 2.6 -5.08 c2.76 -4.92 5.8 -9.84 8.4 -14.04 l0.04 -0.04 c1.12 -1.76 2.24 -3.6 3.24 -5.48 c0.44 -0.84 0.88 -1.68 1.16 -2.6 c0.16 -0.44 0.28 -0.88 0.36 -1.36 c0.16 -1.12 -0.28 -1.8 -1.32 -2.16 c-0.44 -0.16 -0.92 -0.24 -1.44 -0.28 l-0.76 0 c-1.24 0 -2.4 0.12 -3.56 0.4 c-1.52 0.32 -2.92 0.72 -4.24 1.24 c-5.8 2.16 -11 5.16 -15.48 8.88 c-1.44 1.2 -2.56 2.36 -3.48 3.6 c-0.48 0.6 -0.92 1.28 -1.2 1.8 c-0.36 0.52 -0.6 1.16 -0.76 1.84 c-0.4 1.68 0.12 2.96 1.6 3.8 c0.92 0.56 1.96 0.84 3.2 0.84 l0.08 0 c0.16 0 0.32 -0.04 0.48 -0.04 l0.52 0 l0.32 0 c0.24 0.04 0.76 0.12 0.76 0.56 c0 0.32 -0.24 0.56 -0.64 0.6 c-0.6 0.08 -1.12 0.08 -1.6 0.08 c-1.36 0 -2.52 -0.24 -3.56 -0.8 c-0.2 -0.12 -0.36 -0.24 -0.52 -0.36 c-1.68 -1.16 -2.32 -2.8 -1.88 -4.8 c0.2 -1 0.64 -1.96 1.28 -3 c0.6 -1 1.4 -2 2.48 -3.08 c1.28 -1.32 2.76 -2.6 4.36 -3.76 c4.64 -3.36 9.56 -5.96 14.64 -7.72 c1.56 -0.52 3.12 -0.92 4.6 -1.16 c0.48 -0.08 1 -0.12 1.52 -0.12 c0.24 -0.04 0.52 -0.04 0.76 -0.08 c0.2 0 0.36 0.04 0.56 0.04 c0.48 0.04 0.96 0.04 1.44 0.08 c0.64 0.08 1.24 0.28 1.76 0.6 c0.84 0.52 1.28 1.24 1.32 2.24 c0.08 0.72 -0.04 1.48 -0.32 2.28 c-0.28 0.88 -0.68 1.8 -1.24 2.84 c-0.96 1.84 -2.04 3.6 -3.28 5.56 c-2.92 4.72 -5.56 8.96 -8.04 13.4 c-1.04 1.84 -1.88 3.4 -2.68 5.08 c-0.4 0.8 -0.84 1.8 -1.12 2.84 c-0.16 0.52 -0.28 1.08 -0.2 1.68 c0.08 0.72 0.48 1.08 1.16 1.16 c0.16 0.04 0.36 0.04 0.52 0.04 c0.4 0 0.76 -0.04 1.16 -0.16 c0.92 -0.2 1.88 -0.6 3 -1.16 c1.64 -0.8 3.32 -1.84 5.32 -3.2 c2.44 -1.68 5 -3.6 7.96 -6.08 c2.12 -1.8 4.28 -3.6 6.44 -5.4 c5.32 -4.4 10.84 -8.96 16.12 -13.6 l1.28 -1.08 c0.52 -0.48 1.08 -0.96 1.6 -1.44 c0.36 -0.28 0.64 -0.52 0.96 -0.68 c0.08 -0.04 0.2 -0.08 0.32 -0.08 s0.24 0.04 0.36 0.12 c0.24 0.2 0.32 0.44 0.24 0.72 c-0.08 0.24 -0.2 0.52 -0.36 0.76 c-0.24 0.48 -0.52 0.88 -0.76 1.2 c-3.2 4.64 -6.12 9.8 -9.24 16.36 c-1.6 3.28 -3.2 6.68 -4.68 10.2 c-0.32 0.76 -0.64 1.6 -0.92 2.36 l-0.08 0.28 c-0.12 0.36 -0.28 0.96 0.12 1.48 c0.04 0.08 0.08 0.16 0.12 0.32 c0.08 0.28 -0.04 0.56 -0.36 0.64 c-0.12 0.08 -0.24 0.08 -0.36 0.08 z M57.84 43.12 c-0.8 0 -0.96 -0.72 -1 -1.12 l0 -0.2 l0 -0.24 c0.04 -0.08 0.04 -0.12 0.04 -0.2 l0.12 -0.68 c0.24 -0.68 0.44 -1.4 0.72 -2.08 c1.32 -3.16 3.16 -6.08 5.52 -8.64 c0.32 -0.32 0.6 -0.6 0.92 -0.76 c0.12 -0.08 0.24 -0.08 0.36 -0.08 c0.16 0 0.28 0.04 0.4 0.16 c0.16 0.2 0.16 0.48 0 0.72 c-0.08 0.12 -0.2 0.24 -0.32 0.4 c-0.08 0.04 -0.12 0.08 -0.16 0.12 c-2.36 2.48 -4.2 5.36 -5.56 8.52 c0 0.08 -0.04 0.16 -0.08 0.2 c-0.12 0.32 -0.28 0.68 -0.28 1.12 c0 0.32 0.28 0.56 0.56 0.56 c0.08 0 0.2 0 0.28 -0.08 l0.04 0 c0.2 -0.16 0.44 -0.28 0.64 -0.48 c0.6 -0.52 1.16 -1.08 1.72 -1.6 c2.56 -2.4 4.84 -4.52 7.36 -6.52 c0.6 -0.52 1.28 -0.96 1.88 -1.4 c0.36 -0.24 0.68 -0.4 0.96 -0.44 c0.12 0 0.2 -0.04 0.28 -0.04 c0.28 0 0.52 0.12 0.68 0.28 c0.12 0.16 0.2 0.44 0.16 0.76 c-0.04 0.28 -0.12 0.56 -0.24 0.88 c-0.24 0.6 -0.52 1.2 -0.8 1.76 l-0.08 0.2 c-0.6 1.36 -1.28 2.84 -1.76 4.4 c-0.04 0.04 -0.04 0.08 -0.08 0.16 c-0.08 0.28 -0.2 0.56 -0.16 0.96 c0.04 0.32 0.28 0.52 0.56 0.52 l0.12 0 c0.4 -0.04 0.68 -0.24 0.96 -0.44 l0.16 -0.12 c0.48 -0.28 0.96 -0.6 1.44 -0.92 c0.64 -0.44 1.32 -0.84 1.96 -1.28 c0.8 -0.48 1.64 -0.92 2.44 -1.24 c0.28 -0.08 0.64 -0.24 1 -0.28 l0.32 0 c0.8 0 1.32 0.4 1.56 1.28 l0.12 0.44 c0.04 0.16 0.08 0.36 0.12 0.52 c0.12 0.4 0.36 0.6 0.72 0.6 c0.12 0 0.2 0 0.32 -0.04 c0.44 -0.16 0.8 -0.32 1.08 -0.48 c0.56 -0.36 1.16 -0.72 1.72 -1.04 l0.28 -0.2 c1.08 -0.64 2.12 -1.32 3.16 -1.96 l0.6 -0.4 c0.16 -0.12 0.32 -0.24 0.52 -0.36 s0.4 -0.24 0.6 -0.32 c0.08 0 0.12 -0.04 0.2 -0.04 c0.24 0 0.44 0.12 0.56 0.36 c0.16 0.24 0.12 0.48 -0.12 0.72 c-0.16 0.16 -0.36 0.32 -0.64 0.48 c-2.08 1.28 -3.84 2.4 -5.64 3.48 c-0.52 0.32 -1.08 0.6 -1.56 0.84 c-0.4 0.2 -0.88 0.32 -1.36 0.4 l-0.28 0 c-0.92 0 -1.28 -0.64 -1.36 -1.2 l-0.12 -0.48 c0 -0.2 -0.04 -0.4 -0.12 -0.64 c-0.08 -0.32 -0.36 -0.56 -0.72 -0.56 l-0.2 0 c-0.44 0.16 -0.8 0.28 -1.12 0.44 c-1.08 0.52 -2.08 1.16 -3.08 1.8 l-0.24 0.16 c-0.28 0.2 -0.56 0.36 -0.88 0.56 l-1.24 0.84 c-0.48 0.28 -1 0.56 -1.68 0.8 c-0.16 0.08 -0.32 0.08 -0.48 0.08 c-0.36 0 -0.68 -0.12 -0.92 -0.36 c-0.24 -0.28 -0.36 -0.72 -0.32 -1.2 c0.04 -0.4 0.16 -0.84 0.28 -1.28 l0.04 -0.08 c0.36 -1.36 0.92 -2.68 1.44 -3.96 l0.12 -0.24 c0.08 -0.24 0.2 -0.44 0.28 -0.68 l0 -0.08 c0.16 -0.4 0.12 -0.68 -0.2 -0.84 c-0.08 -0.08 -0.16 -0.08 -0.28 -0.08 c-0.24 0 -0.44 0.16 -0.6 0.28 l-0.36 0.28 c-0.44 0.4 -0.92 0.76 -1.36 1.16 l-2.96 2.72 c-1.08 1 -2.16 2 -3.24 2.96 c-0.68 0.64 -1.4 1.2 -2.04 1.72 c-0.36 0.32 -0.76 0.52 -1.16 0.64 c-0.2 0.04 -0.36 0.08 -0.52 0.08 z M80.60000000000001 50.44 c-0.08 0 -0.12 0 -0.2 -0.04 c-0.16 -0.08 -0.28 -0.24 -0.28 -0.48 c0.08 -0.28 0.16 -0.52 0.28 -0.84 l0.2 -0.32 c0.48 -0.88 0.96 -1.76 1.44 -2.6 c0.16 -0.36 0.36 -0.68 0.56 -1.04 c2.12 -3.2 4.04 -6.56 5.92 -9.76 c1.28 -2.08 2.52 -4.24 3.8 -6.32 c1.32 -2.2 2.72 -4.4 4.04 -6.52 l1.16 -1.88 c0.16 -0.24 0.32 -0.44 0.48 -0.56 c0.12 -0.12 0.24 -0.16 0.4 -0.16 c0.04 0 0.12 0 0.16 0.04 c0.16 0.04 0.32 0.16 0.28 0.48 c0 0.24 -0.12 0.48 -0.28 0.72 l-0.24 0.36 l-0.88 1.48 c-2.24 3.48 -4.4 7.08 -6.24 10.16 l-0.12 0.2 c-0.08 0.16 -0.2 0.36 -0.28 0.56 c-0.12 0.12 -0.28 0.48 -0.12 0.76 c0.16 0.16 0.32 0.2 0.44 0.2 c0.2 0 0.36 -0.12 0.44 -0.2 l0.12 -0.04 l0.48 -0.36 c0.2 -0.12 0.32 -0.2 0.52 -0.32 c0.84 -0.56 1.56 -0.88 2.24 -1.08 c0.32 -0.12 0.6 -0.16 0.84 -0.16 c0.04 0 0.12 0 0.16 0.04 c0.44 0.04 0.8 0.24 0.96 0.56 c0.2 0.32 0.2 0.72 0.08 1.16 c-0.12 0.36 -0.36 0.72 -0.64 1.08 c-0.12 0.12 -0.28 0.28 -0.36 0.4 l-0.32 0.32 c-0.24 0.28 -0.24 0.6 -0.08 0.76 c0.12 0.12 0.28 0.16 0.44 0.16 l0.12 0 c0.32 -0.08 0.6 -0.16 0.84 -0.2 c1.56 -0.48 3 -0.96 4.4 -1.52 c1.08 -0.4 2.16 -0.84 3.2 -1.2 l0.16 -0.08 c0.28 -0.12 0.52 -0.2 0.84 -0.24 c0.04 -0.04 0.08 -0.04 0.12 -0.04 c0.28 0 0.44 0.16 0.48 0.4 s-0.08 0.48 -0.4 0.68 c-0.12 0.08 -0.32 0.2 -0.56 0.28 l-0.24 0.08 c-3.36 1.32 -6.84 2.64 -10.32 3.56 c-1.76 0.44 -3.16 0.64 -4.44 0.64 l-0.04 0 c-0.08 0 -0.2 0 -0.32 0.04 l-0.28 0 c-0.16 0 -0.24 0 -0.36 -0.04 l-0.28 0 c-0.84 0 -1.32 0.52 -1.68 0.96 c-0.68 0.84 -1.44 1.84 -2.08 2.88 c-1 1.72 -1.96 3.4 -3 5.12 c-0.2 0.4 -0.44 0.8 -0.72 1.2 c-0.12 0.2 -0.32 0.4 -0.44 0.56 c-0.16 0.12 -0.28 0.16 -0.4 0.16 z M92.08000000000001 36.92 c0.08 0 0.12 0 0.2 -0.04 c1.12 -0.36 2.04 -0.92 2.76 -1.72 c0.12 -0.12 0.16 -0.24 0.2 -0.32 l0 -0.04 l0 -0.2 c-0.04 -0.2 -0.24 -0.36 -0.44 -0.36 c-0.08 0 -0.12 0.04 -0.2 0.04 c-0.92 0.32 -1.8 0.88 -2.76 1.72 c-0.16 0.16 -0.24 0.4 -0.24 0.56 c0.04 0.24 0.24 0.36 0.48 0.36 z M104.40000000000002 40.4 c-0.12 0 -0.28 -0.04 -0.4 -0.12 c-0.32 -0.16 -0.44 -0.48 -0.36 -0.92 c0.04 -0.4 0.12 -0.76 0.24 -1.12 c0.32 -0.96 0.68 -1.96 1.04 -2.96 l0.44 -1.04 c0.36 -0.88 0.72 -1.84 0.96 -2.8 c0 -0.12 0.08 -0.2 0.12 -0.32 c0.12 -0.2 0.32 -0.36 0.52 -0.36 c0.04 0 0.08 0.04 0.12 0.04 c0.28 0.04 0.48 0.28 0.48 0.56 c0.04 0.24 -0.04 0.48 -0.12 0.76 l-0.48 1.32 c-0.16 0.4 -0.28 0.8 -0.44 1.2 l-0.12 0.56 l-0.04 0.12 c-0.04 0.16 0.04 0.44 0.28 0.48 c0.08 0.04 0.16 0.08 0.24 0.08 c0.12 0 0.24 -0.08 0.28 -0.12 c0.24 -0.2 0.4 -0.4 0.56 -0.6 c0.2 -0.2 0.36 -0.4 0.52 -0.6 l0.8 -0.92 c0.28 -0.32 0.56 -0.6 0.84 -0.8 c0.36 -0.28 0.72 -0.44 1.04 -0.44 c0.6 0 0.96 0.52 1.16 0.96 c0.08 0.2 0.16 0.4 0.2 0.6 c0.24 0.76 0.76 1.28 1.6 1.6 c0.64 0.24 1.24 0.36 1.84 0.36 c0.16 0 0.32 0 0.48 -0.04 c2.56 -0.24 4.68 -0.84 6.6 -1.72 l0.04 -0.04 c0.04 -0.04 0.08 -0.04 0.12 -0.04 c0.12 -0.04 0.2 -0.08 0.32 -0.08 c0.16 0 0.32 0.08 0.4 0.2 c0.16 0.24 0.12 0.56 -0.08 0.84 c-0.16 0.2 -0.4 0.36 -0.8 0.48 c-1.52 0.64 -2.72 1 -3.88 1.24 l-0.2 0.04 c-1 0.16 -2.04 0.36 -3.08 0.4 l-0.04 0 c-0.92 0 -1.84 -0.24 -2.8 -0.72 c-0.56 -0.28 -1 -0.68 -1.32 -1.24 l-0.12 -0.24 l-0.24 -0.36 c-0.2 -0.32 -0.44 -0.36 -0.6 -0.36 c-0.2 0 -0.36 0.08 -0.56 0.24 c-0.24 0.28 -0.52 0.56 -0.76 0.88 l-1.32 1.6 c-0.44 0.52 -0.84 1.08 -1.28 1.6 c-0.36 0.44 -0.64 0.76 -0.96 1.08 c-0.16 0.2 -0.4 0.36 -0.64 0.52 c-0.2 0.16 -0.4 0.2 -0.6 0.2 z M124.52000000000002 46.72 c-1.12 0 -1.64 -0.52 -1.64 -1.48 c0 -0.56 0.2 -1.08 0.44 -1.56 c0.52 -1.08 1.2 -2.08 1.8 -3.08 l0.36 -0.56 c0.12 -0.24 0.28 -0.44 0.4 -0.68 c0.08 -0.2 0.12 -0.44 0.04 -0.64 c-0.08 -0.16 -0.28 -0.28 -0.48 -0.28 c-0.08 0 -0.2 0 -0.24 0.04 l-0.96 0.36 c-1.56 0.64 -2.8 1.04 -4 1.24 c-0.2 0.04 -0.4 0.04 -0.6 0.04 c-0.36 0 -0.76 -0.04 -1.08 -0.2 c-0.4 -0.12 -0.68 -0.36 -0.8 -0.68 c-0.16 -0.28 -0.16 -0.64 0 -1.04 c0.12 -0.32 0.36 -0.6 0.68 -0.96 c1.4 -1.36 2.84 -2.36 4.4 -3.08 c0.84 -0.4 1.8 -0.64 2.8 -0.76 c0.24 0 0.48 -0.04 0.72 -0.04 c1.04 0 1.92 0.32 2.6 0.92 c0.2 0.2 0.44 0.28 0.72 0.28 c0.2 0 0.4 -0.04 0.6 -0.16 l0.36 -0.2 c0.16 -0.08 0.28 -0.16 0.44 -0.24 c0.2 -0.08 0.4 -0.16 0.6 -0.16 l0.08 0 c0.24 0 0.4 0.12 0.52 0.32 c0.08 0.2 0.04 0.44 -0.12 0.64 c-0.16 0.12 -0.32 0.24 -0.48 0.32 c-0.64 0.36 -1.12 0.84 -1.64 1.32 c-2.36 2.24 -4 4.92 -5.44 7.52 c-0.08 0.16 -0.16 0.4 -0.24 0.68 c-0.04 0.16 0 0.32 0.12 0.44 c0.08 0.16 0.24 0.2 0.4 0.2 l0.04 0 c0.2 0 0.44 -0.04 0.68 -0.16 l0.12 -0.08 c0.6 -0.32 1.24 -0.68 1.84 -1.04 c2.04 -1.36 3.92 -2.8 5.52 -4.04 c1.92 -1.48 4.44 -3.44 7.08 -5.32 c0.28 -0.16 0.56 -0.36 0.8 -0.48 c0.08 -0.04 0.16 -0.08 0.24 -0.08 c0.16 0 0.28 0.08 0.4 0.2 c0.2 0.2 0.2 0.48 0.04 0.72 s-0.4 0.44 -0.68 0.64 c-0.04 0.04 -0.08 0.04 -0.16 0.08 l-2.12 1.6 l-4.16 3.12 l-1.12 0.8 c-1.44 1.08 -2.92 2.2 -4.36 3.24 c-1.04 0.76 -2.04 1.36 -3.04 1.84 c-0.56 0.28 -1.08 0.44 -1.44 0.44 l-0.04 0 z M120.20000000000002 38.76 l0.12 0 c0.44 0 0.84 -0.12 1.16 -0.24 l0.2 -0.08 c1.84 -0.56 3.56 -1.4 4.96 -2.12 c0.24 -0.08 0.4 -0.2 0.6 -0.32 c0.28 -0.16 0.44 -0.4 0.44 -0.64 c-0.04 -0.44 -0.4 -0.56 -0.56 -0.6 c-0.28 -0.08 -0.56 -0.12 -0.88 -0.12 c-0.12 0 -0.24 0 -0.36 0.04 c-2.68 0.24 -4.64 1.76 -6.04 3.04 c-0.24 0.2 -0.28 0.56 -0.12 0.76 c0.12 0.12 0.24 0.2 0.32 0.2 l0.04 0.04 l0.04 0 z"></path>
    </g>
</svg>
